<svg width="630" height="779" viewBox="0 0 630 779" fill="none" xmlns="http://www.w3.org/2000/svg">
<g opacity="0.7" filter="url(#filter0_f_475_1084)">
<path d="M798.378 661C798.378 856.509 639.887 1015 444.378 1015C248.87 1015 90.3784 856.509 90.3784 661C90.3784 465.491 28.8783 231.5 395.378 614.5C590.887 614.5 341.5 304 798.378 661Z" fill="url(#paint0_linear_475_1084)"/>
</g>
<g opacity="0.7" filter="url(#filter1_f_475_1084)">
<path d="M541 136.938C541 245.947 259.415 409 150.411 409C41.4073 409 -76 226.387 -76 117.378C-76 8.36922 12.3651 -80 121.369 -80C230.373 -80 541 27.9292 541 136.938Z" fill="url(#paint1_linear_475_1084)"/>
</g>
<g style="mix-blend-mode:overlay" opacity="0.35">
<path opacity="0.0126582" d="M460.532 517.001C500.587 532.235 603.986 468.457 589.163 310.517C574.339 152.578 760.402 82.6985 775.775 109.326" stroke="url(#paint2_linear_475_1084)" stroke-opacity="0.9" stroke-width="2"/>
<path opacity="0.0253165" d="M443.023 525.939C481.563 544.623 589.971 490.172 588.884 331.581C587.797 172.991 778.99 119.711 791.984 147.577" stroke="url(#paint3_linear_475_1084)" stroke-opacity="0.9" stroke-width="2"/>
<path opacity="0.0379747" d="M424.8 533.347C461.529 555.332 574.108 510.595 586.759 352.546C599.409 194.496 794.257 158.178 804.773 187.07" stroke="url(#paint4_linear_475_1084)" stroke-opacity="0.9" stroke-width="2"/>
<path opacity="0.0506329" d="M406 539.168C440.636 564.28 556.518 529.57 582.805 373.249C609.092 216.928 806.094 197.802 814.052 227.501" stroke="url(#paint5_linear_475_1084)" stroke-opacity="0.9" stroke-width="2"/>
<path opacity="0.0632911" d="M386.762 543.358C419.04 571.4 537.337 546.952 577.055 393.533C616.774 240.114 814.419 238.279 819.758 268.559" stroke="url(#paint6_linear_475_1084)" stroke-opacity="0.9" stroke-width="2"/>
<path opacity="0.0759494" d="M367.231 545.885C396.903 576.636 516.709 562.607 569.554 413.241C622.4 263.876 819.175 279.298 821.855 309.928" stroke="url(#paint7_linear_475_1084)" stroke-opacity="0.9" stroke-width="2"/>
<path opacity="0.0886076" d="M347.553 546.729C374.394 579.95 494.794 576.415 560.363 432.224C625.931 288.033 820.335 320.547 820.335 351.293" stroke="url(#paint8_linear_475_1084)" stroke-opacity="0.9" stroke-width="2"/>
<path opacity="0.101266" d="M327.875 545.885C351.68 581.315 471.758 588.273 549.55 450.337C627.343 312.401 817.896 361.71 815.216 392.339" stroke="url(#paint9_linear_475_1084)" stroke-opacity="0.9" stroke-width="2"/>
<path opacity="0.113924" d="M308.344 543.358C328.933 580.721 447.778 598.088 537.204 467.441C626.629 336.793 811.885 402.474 806.546 432.754" stroke="url(#paint10_linear_475_1084)" stroke-opacity="0.9" stroke-width="2"/>
<path opacity="0.126582" d="M289.107 539.168C306.323 578.174 423.036 605.788 523.417 483.407C623.798 361.027 802.356 442.532 794.398 472.231" stroke="url(#paint11_linear_475_1084)" stroke-opacity="0.9" stroke-width="2"/>
<path opacity="0.139241" d="M270.306 533.347C284.021 573.692 397.721 611.314 508.298 498.116C618.875 384.918 789.388 481.58 778.872 510.472" stroke="url(#paint12_linear_475_1084)" stroke-opacity="0.9" stroke-width="2"/>
<path opacity="0.151899" d="M252.083 525.939C262.195 567.309 372.027 614.625 491.964 511.455C611.901 408.286 773.088 519.323 760.094 547.189" stroke="url(#paint13_linear_475_1084)" stroke-opacity="0.9" stroke-width="2"/>
<path opacity="0.164557" d="M234.574 517.001C241.008 559.076 346.149 615.698 474.54 523.327C602.931 430.956 753.586 555.48 738.213 582.107" stroke="url(#paint14_linear_475_1084)" stroke-opacity="0.9" stroke-width="2"/>
<path opacity="0.177215" d="M217.909 506.6C220.621 549.053 320.285 614.524 456.161 533.641C592.038 452.758 731.038 589.779 713.402 614.965" stroke="url(#paint15_linear_475_1084)" stroke-opacity="0.9" stroke-width="2"/>
<path opacity="0.189873" d="M202.213 494.816C201.185 537.319 294.631 611.117 436.968 542.323C579.305 473.53 705.621 621.965 685.857 645.518" stroke="url(#paint16_linear_475_1084)" stroke-opacity="0.9" stroke-width="2"/>
<path opacity="0.202532" d="M187.602 481.738C182.846 523.963 269.383 605.502 417.108 549.309C564.832 493.117 677.534 651.799 655.793 673.54" stroke="url(#paint17_linear_475_1084)" stroke-opacity="0.9" stroke-width="2"/>
<path opacity="0.21519" d="M174.185 467.466C165.743 509.086 244.733 597.725 396.732 554.549C548.732 511.373 646.995 679.061 623.442 698.825" stroke="url(#paint18_linear_475_1084)" stroke-opacity="0.9" stroke-width="2"/>
<path opacity="0.227848" d="M162.062 452.108C150.002 492.803 220.868 587.847 375.998 558.007C531.128 528.166 614.243 703.552 589.057 721.187" stroke="url(#paint19_linear_475_1084)" stroke-opacity="0.9" stroke-width="2"/>
<path opacity="0.240506" d="M151.323 435.782C135.743 475.237 197.969 575.947 355.062 559.659C512.156 543.371 579.529 725.092 552.902 740.466" stroke="url(#paint20_linear_475_1084)" stroke-opacity="0.9" stroke-width="2"/>
<path opacity="0.253165" d="M142.046 418.611C123.07 456.524 176.209 562.117 334.084 559.498C491.96 556.878 543.121 743.528 515.255 756.522" stroke="url(#paint21_linear_475_1084)" stroke-opacity="0.9" stroke-width="2"/>
<path opacity="0.265823" d="M134.299 400.727C112.078 436.805 155.753 546.466 313.224 557.528C470.695 568.59 505.299 758.727 476.406 769.242" stroke="url(#paint22_linear_475_1084)" stroke-opacity="0.9" stroke-width="2"/>
<path opacity="0.278481" d="M128.139 382.265C102.848 416.232 136.754 529.116 292.638 553.769C448.522 578.423 466.35 770.583 436.651 778.541" stroke="url(#paint23_linear_475_1084)" stroke-opacity="0.9" stroke-width="2"/>
<path opacity="0.291139" d="M123.611 363.366C95.4492 394.962 119.358 510.201 272.483 548.255C425.608 586.308 426.573 779.016 396.293 784.355" stroke="url(#paint24_linear_475_1084)" stroke-opacity="0.9" stroke-width="2"/>
<path opacity="0.303797" d="M120.746 344.174C89.9339 373.157 103.693 489.869 252.911 541.03C402.128 592.191 386.269 783.972 355.64 786.652" stroke="url(#paint25_linear_475_1084)" stroke-opacity="0.9" stroke-width="2"/>
<path opacity="0.316456" d="M119.562 324.834C86.3419 350.983 89.8761 468.278 234.067 532.156C378.258 596.033 345.745 785.424 314.998 785.424" stroke="url(#paint26_linear_475_1084)" stroke-opacity="0.9" stroke-width="2"/>
<path opacity="0.329114" d="M120.068 305.495C84.6987 328.611 78.0115 445.596 216.095 521.703C354.178 597.811 305.306 783.37 274.676 780.69" stroke="url(#paint27_linear_475_1084)" stroke-opacity="0.9" stroke-width="2"/>
<path opacity="0.341772" d="M122.256 286.303C85.0131 306.21 68.1854 421.997 199.126 509.758C330.067 597.518 265.257 777.837 234.978 772.498" stroke="url(#paint28_linear_475_1084)" stroke-opacity="0.9" stroke-width="2"/>
<path opacity="0.35443" d="M126.107 267.404C87.2807 283.952 60.4702 397.665 183.288 496.413C306.107 595.161 225.899 768.877 196.2 760.919" stroke="url(#paint29_linear_475_1084)" stroke-opacity="0.9" stroke-width="2"/>
<path opacity="0.367089" d="M131.59 248.942C91.482 262.007 54.9217 372.789 168.698 481.777C282.475 590.766 187.527 756.567 158.635 746.052" stroke="url(#paint30_linear_475_1084)" stroke-opacity="0.9" stroke-width="2"/>
<path opacity="0.379747" d="M138.659 231.058C97.5815 240.543 51.5779 347.56 155.462 465.965C259.346 584.37 150.428 741.013 122.562 728.019" stroke="url(#paint31_linear_475_1084)" stroke-opacity="0.9" stroke-width="2"/>
<path opacity="0.392405" d="M147.259 213.887C105.53 219.722 50.4605 322.174 143.677 449.101C236.893 576.028 114.876 722.341 88.2482 706.968" stroke="url(#paint32_linear_475_1084)" stroke-opacity="0.9" stroke-width="2"/>
<path opacity="0.405063" d="M157.322 197.561C115.265 199.706 51.5748 296.826 133.428 431.318C215.281 565.809 81.1354 700.703 55.9493 683.067" stroke="url(#paint33_linear_475_1084)" stroke-opacity="0.9" stroke-width="2"/>
<path opacity="0.417722" d="M168.767 182.203C126.708 180.645 54.9064 271.713 124.787 412.755C194.667 553.796 49.4542 676.272 25.9009 656.508" stroke="url(#paint34_linear_475_1084)" stroke-opacity="0.9" stroke-width="2"/>
<path opacity="0.43038" d="M181.506 167.931C139.77 162.686 60.4266 247.028 117.815 393.556C175.203 540.085 20.0654 649.242 -1.67579 627.501" stroke="url(#paint35_linear_475_1084)" stroke-opacity="0.9" stroke-width="2"/>
<path opacity="0.443038" d="M195.439 154.853C154.349 145.966 68.089 222.96 112.56 373.873C157.031 524.785 -6.81666 619.826 -26.5802 596.273" stroke="url(#paint36_linear_475_1084)" stroke-opacity="0.9" stroke-width="2"/>
<path opacity="0.455696" d="M210.458 143.069C170.33 130.612 77.8292 199.697 109.055 353.857C140.281 508.017 -30.9986 588.256 -48.6341 563.07" stroke="url(#paint37_linear_475_1084)" stroke-opacity="0.9" stroke-width="2"/>
<path opacity="0.468354" d="M226.446 132.668C187.59 116.742 89.5688 177.415 107.321 333.664C125.073 489.912 -52.3062 554.778 -67.6795 528.151" stroke="url(#paint38_linear_475_1084)" stroke-opacity="0.9" stroke-width="2"/>
<path opacity="0.481013" d="M243.278 123.73C205.992 104.461 103.213 156.288 107.365 313.449C111.517 470.61 -70.5889 519.653 -83.583 491.787" stroke="url(#paint39_linear_475_1084)" stroke-opacity="0.9" stroke-width="2"/>
<path opacity="0.493671" d="M260.823 116.322C225.396 93.8639 118.652 136.476 109.179 293.369C99.706 450.262 -85.7194 483.151 -96.2353 454.259" stroke="url(#paint40_linear_475_1084)" stroke-opacity="0.9" stroke-width="2"/>
<path opacity="0.506329" d="M278.946 110.501C245.648 85.0307 135.763 118.133 112.743 273.579C89.7226 429.025 -97.5947 445.556 -105.552 415.857" stroke="url(#paint41_linear_475_1084)" stroke-opacity="0.9" stroke-width="2"/>
<path opacity="0.518987" d="M297.507 106.311C266.593 78.0289 154.411 101.398 118.023 254.23C81.6347 407.062 -106.136 407.156 -111.475 376.876" stroke="url(#paint42_linear_475_1084)" stroke-opacity="0.9" stroke-width="2"/>
<path opacity="0.531646" d="M316.36 103.784C288.067 72.9122 174.447 86.4003 124.971 235.471C75.4946 384.541 -111.292 368.245 -113.972 337.616" stroke="url(#paint43_linear_475_1084)" stroke-opacity="0.9" stroke-width="2"/>
<path opacity="0.544304" d="M335.361 102.94C309.905 69.7194 195.714 73.2536 133.528 217.445C71.3412 361.636 -113.036 329.122 -113.036 298.376" stroke="url(#paint44_linear_475_1084)" stroke-opacity="0.9" stroke-width="2"/>
<path opacity="0.556962" d="M354.362 103.784C331.936 68.4748 218.044 62.0583 143.62 200.289C69.1971 338.52 -111.368 290.084 -108.688 259.455" stroke="url(#paint45_linear_475_1084)" stroke-opacity="0.9" stroke-width="2"/>
<path opacity="0.56962" d="M373.215 106.311C353.99 69.188 241.26 52.8995 155.165 184.134C69.0698 315.369 -106.312 251.429 -100.973 221.149" stroke="url(#paint46_linear_475_1084)" stroke-opacity="0.9" stroke-width="2"/>
<path opacity="0.582278" d="M391.776 110.501C375.896 71.8534 265.182 45.8465 168.067 169.102C70.9527 292.358 -97.9201 213.448 -89.9623 183.749" stroke="url(#paint47_linear_475_1084)" stroke-opacity="0.9" stroke-width="2"/>
<path opacity="0.594937" d="M409.899 116.322C397.484 76.4507 289.62 40.9523 182.221 155.307C74.8213 269.662 -86.2696 176.429 -75.7537 147.537" stroke="url(#paint48_linear_475_1084)" stroke-opacity="0.9" stroke-width="2"/>
<path opacity="0.607595" d="M427.445 123.73C418.587 82.9445 314.384 38.2532 197.511 142.852C80.6391 247.451 -71.4607 140.651 -58.4666 112.785" stroke="url(#paint49_linear_475_1084)" stroke-opacity="0.9" stroke-width="2"/>
<path opacity="0.620253" d="M444.276 132.668C439.041 91.2854 339.278 37.7684 213.815 131.83C88.3529 225.892 -53.6187 106.381 -38.2454 79.7537" stroke="url(#paint50_linear_475_1084)" stroke-opacity="0.9" stroke-width="2"/>
<path opacity="0.632911" d="M460.264 143.069C458.686 101.41 364.109 39.5002 231.003 122.323C97.8965 205.146 -32.8906 73.8761 -15.2551 48.6899" stroke="url(#paint51_linear_475_1084)" stroke-opacity="0.9" stroke-width="2"/>
<path opacity="0.64557" d="M475.283 154.853C477.372 113.24 388.682 43.4338 248.936 114.401C109.19 185.368 -9.44554 43.3778 10.318 19.8245" stroke="url(#paint52_linear_475_1084)" stroke-opacity="0.9" stroke-width="2"/>
<path opacity="0.658228" d="M489.216 167.931C494.951 126.685 412.805 49.5371 267.472 108.121C122.139 166.705 16.5271 15.112 38.2683 -6.62912" stroke="url(#paint53_linear_475_1084)" stroke-opacity="0.9" stroke-width="2"/>
<path opacity="0.670886" d="M501.956 182.203C511.288 141.643 436.289 57.7616 286.464 103.528C136.638 149.294 44.8197 -10.713 68.3729 -30.4766" stroke="url(#paint54_linear_475_1084)" stroke-opacity="0.9" stroke-width="2"/>
<path opacity="0.683544" d="M513.401 197.561C526.255 158 458.951 68.0423 305.761 100.653C152.57 133.264 75.2066 -33.9086 100.393 -51.5441" stroke="url(#paint55_linear_475_1084)" stroke-opacity="0.9" stroke-width="2"/>
<path opacity="0.696203" d="M523.463 213.887C539.736 175.631 480.615 80.2985 325.212 99.5152C169.809 118.732 107.449 -54.3061 134.077 -69.6794" stroke="url(#paint56_linear_475_1084)" stroke-opacity="0.9" stroke-width="2"/>
<path opacity="0.708861" d="M532.063 231.058C551.624 194.4 501.11 94.4341 344.663 100.119C188.217 105.803 141.293 -71.7591 169.159 -84.7532" stroke="url(#paint57_linear_475_1084)" stroke-opacity="0.9" stroke-width="2"/>
<path opacity="0.721519" d="M539.132 248.942C561.827 214.165 520.276 110.339 363.962 102.455C207.647 94.5705 176.473 -86.1439 205.365 -96.6599" stroke="url(#paint58_linear_475_1084)" stroke-opacity="0.9" stroke-width="2"/>
<path opacity="0.734177" d="M544.615 267.404C570.264 234.774 537.965 127.888 382.957 106.501C227.949 85.1142 212.716 -97.3605 242.414 -105.318" stroke="url(#paint59_linear_475_1084)" stroke-opacity="0.9" stroke-width="2"/>
<path opacity="0.746835" d="M548.466 286.303C576.868 256.07 554.038 146.946 401.5 112.223C248.962 77.5003 249.738 -105.333 280.018 -110.673" stroke="url(#paint60_linear_475_1084)" stroke-opacity="0.9" stroke-width="2"/>
<path opacity="0.759494" d="M550.654 305.495C581.587 277.891 568.369 167.365 419.446 119.573C270.523 71.7809 287.256 -110.012 317.885 -112.692" stroke="url(#paint61_linear_475_1084)" stroke-opacity="0.9" stroke-width="2"/>
<path opacity="0.772152" d="M551.16 324.834C584.38 300.07 580.846 188.985 436.655 128.489C292.464 67.9934 324.977 -111.371 355.724 -111.371" stroke="url(#paint62_linear_475_1084)" stroke-opacity="0.9" stroke-width="2"/>
<path opacity="0.78481" d="M549.976 344.174C585.226 322.437 591.372 211.638 452.993 138.9C314.615 66.1606 362.614 -109.41 393.243 -106.73" stroke="url(#paint63_linear_475_1084)" stroke-opacity="0.9" stroke-width="2"/>
<path opacity="0.797468" d="M547.111 363.366C584.114 344.822 599.863 235.151 468.335 150.72C336.807 66.2904 399.876 -104.154 430.156 -98.8153" stroke="url(#paint64_linear_475_1084)" stroke-opacity="0.9" stroke-width="2"/>
<path opacity="0.810127" d="M542.583 382.265C581.051 367.054 606.254 259.339 482.561 163.857C358.867 68.3758 436.48 -95.6545 466.179 -87.6966" stroke="url(#paint65_linear_475_1084)" stroke-opacity="0.9" stroke-width="2"/>
<path opacity="0.822785" d="M536.423 400.727C576.057 388.963 610.494 284.016 495.561 178.206C380.628 72.3951 472.146 -83.9849 501.038 -73.469" stroke="url(#paint66_linear_475_1084)" stroke-opacity="0.9" stroke-width="2"/>
<path opacity="0.835443" d="M528.677 418.611C569.169 410.381 612.548 308.991 507.235 193.652C401.921 78.3118 506.603 -69.2445 534.469 -56.2504" stroke="url(#paint67_linear_475_1084)" stroke-opacity="0.9" stroke-width="2"/>
<path opacity="0.848101" d="M519.399 435.782C560.436 431.145 612.401 334.072 517.494 210.073C422.586 86.0752 539.591 -51.5547 566.218 -36.1814" stroke="url(#paint68_linear_475_1084)" stroke-opacity="0.9" stroke-width="2"/>
<path opacity="0.860759" d="M508.66 452.108C549.922 451.097 610.051 359.063 526.258 227.342C442.465 95.621 570.86 -31.0594 596.046 -13.4239" stroke="url(#paint69_linear_475_1084)" stroke-opacity="0.9" stroke-width="2"/>
<path opacity="0.873418" d="M496.537 467.466C537.706 470.084 605.516 383.773 533.462 245.322C461.408 106.871 600.176 -7.92325 623.729 11.8403" stroke="url(#paint70_linear_475_1084)" stroke-opacity="0.9" stroke-width="2"/>
<path opacity="0.886076" d="M483.12 481.738C523.877 487.962 598.83 408.011 539.05 263.874C479.271 119.736 627.318 17.6694 649.06 39.4106" stroke="url(#paint71_linear_475_1084)" stroke-opacity="0.9" stroke-width="2"/>
<path opacity="0.898734" d="M468.509 494.816C508.539 504.593 590.042 431.59 542.981 282.851C495.919 134.112 652.086 45.5164 671.85 69.0697" stroke="url(#paint72_linear_475_1084)" stroke-opacity="0.9" stroke-width="2"/>
<path opacity="0.911392" d="M452.814 506.6C491.807 519.851 579.222 454.328 545.226 302.108C511.23 149.887 674.296 75.3987 691.931 100.585" stroke="url(#paint73_linear_475_1084)" stroke-opacity="0.9" stroke-width="2"/>
<path opacity="0.924051" d="M436.148 517.001C473.806 533.619 566.449 476.051 545.768 321.493C525.087 166.936 693.783 107.083 709.156 133.71" stroke="url(#paint74_linear_475_1084)" stroke-opacity="0.9" stroke-width="2"/>
<path opacity="0.936709" d="M418.639 525.939C454.67 545.793 551.821 496.591 544.604 340.859C537.388 185.127 710.406 140.322 723.4 168.187" stroke="url(#paint75_linear_475_1084)" stroke-opacity="0.9" stroke-width="2"/>
<path opacity="0.949367" d="M400.416 533.347C434.543 556.278 535.451 515.79 541.747 360.054C548.042 204.317 724.045 174.858 734.561 203.75" stroke="url(#paint76_linear_475_1084)" stroke-opacity="0.9" stroke-width="2"/>
<path opacity="0.962025" d="M381.616 539.168C413.577 564.997 517.463 533.501 537.217 378.931C556.971 224.36 734.603 210.424 742.561 240.123" stroke="url(#paint77_linear_475_1084)" stroke-opacity="0.9" stroke-width="2"/>
<path opacity="0.974684" d="M362.378 543.358C391.929 571.88 497.995 549.589 531.053 397.345C564.111 245.1 742.008 246.748 747.347 277.027" stroke="url(#paint78_linear_475_1084)" stroke-opacity="0.9" stroke-width="2"/>
<path opacity="0.987342" d="M342.847 545.885C369.762 576.877 477.195 563.931 523.303 415.155C569.41 266.379 746.209 283.549 748.889 314.179" stroke="url(#paint79_linear_475_1084)" stroke-opacity="0.9" stroke-width="2"/>
<path d="M323.169 546.729C347.241 579.95 455.222 576.415 514.027 432.224C572.831 288.033 747.182 320.547 747.182 351.293" stroke="url(#paint80_linear_475_1084)" stroke-opacity="0.9" stroke-width="2"/>
</g>
<defs>
<filter id="filter0_f_475_1084" x="-513.505" y="-190.963" width="1911.88" height="1805.96" filterUnits="userSpaceOnUse" color-interpolation-filters="sRGB">
<feFlood flood-opacity="0" result="BackgroundImageFix"/>
<feBlend mode="normal" in="SourceGraphic" in2="BackgroundImageFix" result="shape"/>
<feGaussianBlur stdDeviation="300" result="effect1_foregroundBlur_475_1084"/>
</filter>
<filter id="filter1_f_475_1084" x="-476" y="-480" width="1417" height="1289" filterUnits="userSpaceOnUse" color-interpolation-filters="sRGB">
<feFlood flood-opacity="0" result="BackgroundImageFix"/>
<feBlend mode="normal" in="SourceGraphic" in2="BackgroundImageFix" result="shape"/>
<feGaussianBlur stdDeviation="200" result="effect1_foregroundBlur_475_1084"/>
</filter>
<linearGradient id="paint0_linear_475_1084" x1="176" y1="888" x2="403.158" y2="513.12" gradientUnits="userSpaceOnUse">
<stop stop-color="#F1087E"/>
<stop offset="1" stop-color="#FC945F"/>
</linearGradient>
<linearGradient id="paint1_linear_475_1084" x1="-76" y1="-80" x2="611.692" y2="58.8323" gradientUnits="userSpaceOnUse">
<stop stop-color="#8F3B76"/>
<stop offset="1" stop-color="#1F316F"/>
</linearGradient>
<linearGradient id="paint2_linear_475_1084" x1="556.065" y1="205.623" x2="675.615" y2="412.69" gradientUnits="userSpaceOnUse">
<stop stop-color="white"/>
<stop offset="1" stop-color="white" stop-opacity="0"/>
</linearGradient>
<linearGradient id="paint3_linear_475_1084" x1="565.024" y1="224.216" x2="666.072" y2="440.914" gradientUnits="userSpaceOnUse">
<stop stop-color="white"/>
<stop offset="1" stop-color="white" stop-opacity="0"/>
</linearGradient>
<linearGradient id="paint4_linear_475_1084" x1="572.316" y1="243.521" x2="654.093" y2="468.201" gradientUnits="userSpaceOnUse">
<stop stop-color="white"/>
<stop offset="1" stop-color="white" stop-opacity="0"/>
</linearGradient>
<linearGradient id="paint5_linear_475_1084" x1="577.887" y1="263.389" x2="639.77" y2="494.342" gradientUnits="userSpaceOnUse">
<stop stop-color="white"/>
<stop offset="1" stop-color="white" stop-opacity="0"/>
</linearGradient>
<linearGradient id="paint6_linear_475_1084" x1="581.697" y1="283.668" x2="623.216" y2="519.136" gradientUnits="userSpaceOnUse">
<stop stop-color="white"/>
<stop offset="1" stop-color="white" stop-opacity="0"/>
</linearGradient>
<linearGradient id="paint7_linear_475_1084" x1="583.72" y1="304.202" x2="604.559" y2="542.392" gradientUnits="userSpaceOnUse">
<stop stop-color="white"/>
<stop offset="1" stop-color="white" stop-opacity="0"/>
</linearGradient>
<linearGradient id="paint8_linear_475_1084" x1="583.944" y1="324.834" x2="583.944" y2="563.935" gradientUnits="userSpaceOnUse">
<stop stop-color="white"/>
<stop offset="1" stop-color="white" stop-opacity="0"/>
</linearGradient>
<linearGradient id="paint9_linear_475_1084" x1="582.368" y1="345.408" x2="561.529" y2="583.598" gradientUnits="userSpaceOnUse">
<stop stop-color="white"/>
<stop offset="1" stop-color="white" stop-opacity="0"/>
</linearGradient>
<linearGradient id="paint10_linear_475_1084" x1="579.008" y1="365.766" x2="537.489" y2="601.233" gradientUnits="userSpaceOnUse">
<stop stop-color="white"/>
<stop offset="1" stop-color="white" stop-opacity="0"/>
</linearGradient>
<linearGradient id="paint11_linear_475_1084" x1="573.892" y1="385.754" x2="512.008" y2="616.707" gradientUnits="userSpaceOnUse">
<stop stop-color="white"/>
<stop offset="1" stop-color="white" stop-opacity="0"/>
</linearGradient>
<linearGradient id="paint12_linear_475_1084" x1="567.06" y1="405.222" x2="485.283" y2="629.902" gradientUnits="userSpaceOnUse">
<stop stop-color="white"/>
<stop offset="1" stop-color="white" stop-opacity="0"/>
</linearGradient>
<linearGradient id="paint13_linear_475_1084" x1="558.568" y1="424.022" x2="457.52" y2="640.72" gradientUnits="userSpaceOnUse">
<stop stop-color="white"/>
<stop offset="1" stop-color="white" stop-opacity="0"/>
</linearGradient>
<linearGradient id="paint14_linear_475_1084" x1="548.482" y1="442.014" x2="428.932" y2="649.081" gradientUnits="userSpaceOnUse">
<stop stop-color="white"/>
<stop offset="1" stop-color="white" stop-opacity="0"/>
</linearGradient>
<linearGradient id="paint15_linear_475_1084" x1="536.881" y1="459.063" x2="399.738" y2="654.922" gradientUnits="userSpaceOnUse">
<stop stop-color="white"/>
<stop offset="1" stop-color="white" stop-opacity="0"/>
</linearGradient>
<linearGradient id="paint16_linear_475_1084" x1="523.854" y1="475.042" x2="370.164" y2="658.203" gradientUnits="userSpaceOnUse">
<stop stop-color="white"/>
<stop offset="1" stop-color="white" stop-opacity="0"/>
</linearGradient>
<linearGradient id="paint17_linear_475_1084" x1="509.504" y1="489.833" x2="340.434" y2="658.902" gradientUnits="userSpaceOnUse">
<stop stop-color="white"/>
<stop offset="1" stop-color="white" stop-opacity="0"/>
</linearGradient>
<linearGradient id="paint18_linear_475_1084" x1="493.938" y1="503.326" x2="310.777" y2="657.017" gradientUnits="userSpaceOnUse">
<stop stop-color="white"/>
<stop offset="1" stop-color="white" stop-opacity="0"/>
</linearGradient>
<linearGradient id="paint19_linear_475_1084" x1="477.279" y1="515.423" x2="281.42" y2="652.565" gradientUnits="userSpaceOnUse">
<stop stop-color="white"/>
<stop offset="1" stop-color="white" stop-opacity="0"/>
</linearGradient>
<linearGradient id="paint20_linear_475_1084" x1="459.653" y1="526.035" x2="252.586" y2="645.585" gradientUnits="userSpaceOnUse">
<stop stop-color="white"/>
<stop offset="1" stop-color="white" stop-opacity="0"/>
</linearGradient>
<linearGradient id="paint21_linear_475_1084" x1="441.193" y1="535.087" x2="224.495" y2="636.135" gradientUnits="userSpaceOnUse">
<stop stop-color="white"/>
<stop offset="1" stop-color="white" stop-opacity="0"/>
</linearGradient>
<linearGradient id="paint22_linear_475_1084" x1="422.041" y1="542.514" x2="197.36" y2="624.291" gradientUnits="userSpaceOnUse">
<stop stop-color="white"/>
<stop offset="1" stop-color="white" stop-opacity="0"/>
</linearGradient>
<linearGradient id="paint23_linear_475_1084" x1="402.341" y1="548.264" x2="171.388" y2="610.147" gradientUnits="userSpaceOnUse">
<stop stop-color="white"/>
<stop offset="1" stop-color="white" stop-opacity="0"/>
</linearGradient>
<linearGradient id="paint24_linear_475_1084" x1="382.242" y1="552.298" x2="146.775" y2="593.817" gradientUnits="userSpaceOnUse">
<stop stop-color="white"/>
<stop offset="1" stop-color="white" stop-opacity="0"/>
</linearGradient>
<linearGradient id="paint25_linear_475_1084" x1="361.897" y1="554.59" x2="123.707" y2="575.429" gradientUnits="userSpaceOnUse">
<stop stop-color="white"/>
<stop offset="1" stop-color="white" stop-opacity="0"/>
</linearGradient>
<linearGradient id="paint26_linear_475_1084" x1="341.457" y1="555.129" x2="102.357" y2="555.129" gradientUnits="userSpaceOnUse">
<stop stop-color="white"/>
<stop offset="1" stop-color="white" stop-opacity="0"/>
</linearGradient>
<linearGradient id="paint27_linear_475_1084" x1="321.077" y1="553.915" x2="82.8864" y2="533.077" gradientUnits="userSpaceOnUse">
<stop stop-color="white"/>
<stop offset="1" stop-color="white" stop-opacity="0"/>
</linearGradient>
<linearGradient id="paint28_linear_475_1084" x1="300.907" y1="550.963" x2="65.4395" y2="509.444" gradientUnits="userSpaceOnUse">
<stop stop-color="white"/>
<stop offset="1" stop-color="white" stop-opacity="0"/>
</linearGradient>
<linearGradient id="paint29_linear_475_1084" x1="281.099" y1="546.301" x2="50.1462" y2="484.417" gradientUnits="userSpaceOnUse">
<stop stop-color="white"/>
<stop offset="1" stop-color="white" stop-opacity="0"/>
</linearGradient>
<linearGradient id="paint30_linear_475_1084" x1="261.8" y1="539.968" x2="37.1198" y2="458.191" gradientUnits="userSpaceOnUse">
<stop stop-color="white"/>
<stop offset="1" stop-color="white" stop-opacity="0"/>
</linearGradient>
<linearGradient id="paint31_linear_475_1084" x1="243.153" y1="532.018" x2="26.4545" y2="430.97" gradientUnits="userSpaceOnUse">
<stop stop-color="white"/>
<stop offset="1" stop-color="white" stop-opacity="0"/>
</linearGradient>
<linearGradient id="paint32_linear_475_1084" x1="225.294" y1="522.516" x2="18.2269" y2="402.966" gradientUnits="userSpaceOnUse">
<stop stop-color="white"/>
<stop offset="1" stop-color="white" stop-opacity="0"/>
</linearGradient>
<linearGradient id="paint33_linear_475_1084" x1="208.355" y1="511.539" x2="12.4957" y2="374.397" gradientUnits="userSpaceOnUse">
<stop stop-color="white"/>
<stop offset="1" stop-color="white" stop-opacity="0"/>
</linearGradient>
<linearGradient id="paint34_linear_475_1084" x1="192.459" y1="499.175" x2="9.29743" y2="345.484" gradientUnits="userSpaceOnUse">
<stop stop-color="white"/>
<stop offset="1" stop-color="white" stop-opacity="0"/>
</linearGradient>
<linearGradient id="paint35_linear_475_1084" x1="177.721" y1="485.522" x2="8.65191" y2="316.453" gradientUnits="userSpaceOnUse">
<stop stop-color="white"/>
<stop offset="1" stop-color="white" stop-opacity="0"/>
</linearGradient>
<linearGradient id="paint36_linear_475_1084" x1="164.249" y1="470.688" x2="10.5583" y2="287.527" gradientUnits="userSpaceOnUse">
<stop stop-color="white"/>
<stop offset="1" stop-color="white" stop-opacity="0"/>
</linearGradient>
<linearGradient id="paint37_linear_475_1084" x1="152.137" y1="454.789" x2="14.9947" y2="258.93" gradientUnits="userSpaceOnUse">
<stop stop-color="white"/>
<stop offset="1" stop-color="white" stop-opacity="0"/>
</linearGradient>
<linearGradient id="paint38_linear_475_1084" x1="141.472" y1="437.95" x2="21.9215" y2="230.883" gradientUnits="userSpaceOnUse">
<stop stop-color="white"/>
<stop offset="1" stop-color="white" stop-opacity="0"/>
</linearGradient>
<linearGradient id="paint39_linear_475_1084" x1="132.327" y1="420.301" x2="31.2787" y2="203.602" gradientUnits="userSpaceOnUse">
<stop stop-color="white"/>
<stop offset="1" stop-color="white" stop-opacity="0"/>
</linearGradient>
<linearGradient id="paint40_linear_475_1084" x1="124.765" y1="401.978" x2="42.9879" y2="177.298" gradientUnits="userSpaceOnUse">
<stop stop-color="white"/>
<stop offset="1" stop-color="white" stop-opacity="0"/>
</linearGradient>
<linearGradient id="paint41_linear_475_1084" x1="118.836" y1="383.124" x2="56.9526" y2="152.171" gradientUnits="userSpaceOnUse">
<stop stop-color="white"/>
<stop offset="1" stop-color="white" stop-opacity="0"/>
</linearGradient>
<linearGradient id="paint42_linear_475_1084" x1="114.579" y1="363.884" x2="73.0596" y2="128.416" gradientUnits="userSpaceOnUse">
<stop stop-color="white"/>
<stop offset="1" stop-color="white" stop-opacity="0"/>
</linearGradient>
<linearGradient id="paint43_linear_475_1084" x1="112.017" y1="344.404" x2="91.1778" y2="106.214" gradientUnits="userSpaceOnUse">
<stop stop-color="white"/>
<stop offset="1" stop-color="white" stop-opacity="0"/>
</linearGradient>
<linearGradient id="paint44_linear_475_1084" x1="111.162" y1="324.834" x2="111.162" y2="85.7344" gradientUnits="userSpaceOnUse">
<stop stop-color="white"/>
<stop offset="1" stop-color="white" stop-opacity="0"/>
</linearGradient>
<linearGradient id="paint45_linear_475_1084" x1="112.014" y1="305.324" x2="132.853" y2="67.1335" gradientUnits="userSpaceOnUse">
<stop stop-color="white"/>
<stop offset="1" stop-color="white" stop-opacity="0"/>
</linearGradient>
<linearGradient id="paint46_linear_475_1084" x1="114.558" y1="286.02" x2="156.077" y2="50.5527" gradientUnits="userSpaceOnUse">
<stop stop-color="white"/>
<stop offset="1" stop-color="white" stop-opacity="0"/>
</linearGradient>
<linearGradient id="paint47_linear_475_1084" x1="118.768" y1="267.071" x2="180.651" y2="36.1176" gradientUnits="userSpaceOnUse">
<stop stop-color="white"/>
<stop offset="1" stop-color="white" stop-opacity="0"/>
</linearGradient>
<linearGradient id="paint48_linear_475_1084" x1="124.602" y1="248.617" x2="206.379" y2="23.9367" gradientUnits="userSpaceOnUse">
<stop stop-color="white"/>
<stop offset="1" stop-color="white" stop-opacity="0"/>
</linearGradient>
<linearGradient id="paint49_linear_475_1084" x1="132.01" y1="230.8" x2="233.058" y2="14.1013" gradientUnits="userSpaceOnUse">
<stop stop-color="white"/>
<stop offset="1" stop-color="white" stop-opacity="0"/>
</linearGradient>
<linearGradient id="paint50_linear_475_1084" x1="140.927" y1="213.751" x2="260.477" y2="6.68436" gradientUnits="userSpaceOnUse">
<stop stop-color="white"/>
<stop offset="1" stop-color="white" stop-opacity="0"/>
</linearGradient>
<linearGradient id="paint51_linear_475_1084" x1="151.28" y1="197.599" x2="288.422" y2="1.73979" gradientUnits="userSpaceOnUse">
<stop stop-color="white"/>
<stop offset="1" stop-color="white" stop-opacity="0"/>
</linearGradient>
<linearGradient id="paint52_linear_475_1084" x1="162.981" y1="182.464" x2="316.672" y2="-0.697444" gradientUnits="userSpaceOnUse">
<stop stop-color="white"/>
<stop offset="1" stop-color="white" stop-opacity="0"/>
</linearGradient>
<linearGradient id="paint53_linear_475_1084" x1="175.936" y1="168.457" x2="345.005" y2="-0.611996" gradientUnits="userSpaceOnUse">
<stop stop-color="white"/>
<stop offset="1" stop-color="white" stop-opacity="0"/>
</linearGradient>
<linearGradient id="paint54_linear_475_1084" x1="190.039" y1="155.683" x2="373.201" y2="1.99209" gradientUnits="userSpaceOnUse">
<stop stop-color="white"/>
<stop offset="1" stop-color="white" stop-opacity="0"/>
</linearGradient>
<linearGradient id="paint55_linear_475_1084" x1="205.177" y1="144.233" x2="401.037" y2="7.0911" gradientUnits="userSpaceOnUse">
<stop stop-color="white"/>
<stop offset="1" stop-color="white" stop-opacity="0"/>
</linearGradient>
<linearGradient id="paint56_linear_475_1084" x1="221.23" y1="134.192" x2="428.297" y2="14.6422" gradientUnits="userSpaceOnUse">
<stop stop-color="white"/>
<stop offset="1" stop-color="white" stop-opacity="0"/>
</linearGradient>
<linearGradient id="paint57_linear_475_1084" x1="238.069" y1="125.632" x2="454.767" y2="24.5836" gradientUnits="userSpaceOnUse">
<stop stop-color="white"/>
<stop offset="1" stop-color="white" stop-opacity="0"/>
</linearGradient>
<linearGradient id="paint58_linear_475_1084" x1="255.561" y1="118.612" x2="480.241" y2="36.835" gradientUnits="userSpaceOnUse">
<stop stop-color="white"/>
<stop offset="1" stop-color="white" stop-opacity="0"/>
</linearGradient>
<linearGradient id="paint59_linear_475_1084" x1="273.569" y1="113.182" x2="504.522" y2="51.2984" gradientUnits="userSpaceOnUse">
<stop stop-color="white"/>
<stop offset="1" stop-color="white" stop-opacity="0"/>
</linearGradient>
<linearGradient id="paint60_linear_475_1084" x1="291.952" y1="109.378" x2="527.419" y2="67.8589" gradientUnits="userSpaceOnUse">
<stop stop-color="white"/>
<stop offset="1" stop-color="white" stop-opacity="0"/>
</linearGradient>
<linearGradient id="paint61_linear_475_1084" x1="310.566" y1="107.224" x2="548.756" y2="86.3854" gradientUnits="userSpaceOnUse">
<stop stop-color="white"/>
<stop offset="1" stop-color="white" stop-opacity="0"/>
</linearGradient>
<linearGradient id="paint62_linear_475_1084" x1="329.265" y1="106.732" x2="568.365" y2="106.732" gradientUnits="userSpaceOnUse">
<stop stop-color="white"/>
<stop offset="1" stop-color="white" stop-opacity="0"/>
</linearGradient>
<linearGradient id="paint63_linear_475_1084" x1="347.906" y1="107.899" x2="586.096" y2="128.738" gradientUnits="userSpaceOnUse">
<stop stop-color="white"/>
<stop offset="1" stop-color="white" stop-opacity="0"/>
</linearGradient>
<linearGradient id="paint64_linear_475_1084" x1="366.343" y1="110.712" x2="601.811" y2="152.232" gradientUnits="userSpaceOnUse">
<stop stop-color="white"/>
<stop offset="1" stop-color="white" stop-opacity="0"/>
</linearGradient>
<linearGradient id="paint65_linear_475_1084" x1="384.435" y1="115.145" x2="615.388" y2="177.029" gradientUnits="userSpaceOnUse">
<stop stop-color="white"/>
<stop offset="1" stop-color="white" stop-opacity="0"/>
</linearGradient>
<linearGradient id="paint66_linear_475_1084" x1="402.043" y1="121.158" x2="626.723" y2="202.935" gradientUnits="userSpaceOnUse">
<stop stop-color="white"/>
<stop offset="1" stop-color="white" stop-opacity="0"/>
</linearGradient>
<linearGradient id="paint67_linear_475_1084" x1="419.03" y1="128.701" x2="635.729" y2="229.749" gradientUnits="userSpaceOnUse">
<stop stop-color="white"/>
<stop offset="1" stop-color="white" stop-opacity="0"/>
</linearGradient>
<linearGradient id="paint68_linear_475_1084" x1="435.268" y1="137.712" x2="642.335" y2="257.262" gradientUnits="userSpaceOnUse">
<stop stop-color="white"/>
<stop offset="1" stop-color="white" stop-opacity="0"/>
</linearGradient>
<linearGradient id="paint69_linear_475_1084" x1="450.633" y1="148.117" x2="646.492" y2="285.259" gradientUnits="userSpaceOnUse">
<stop stop-color="white"/>
<stop offset="1" stop-color="white" stop-opacity="0"/>
</linearGradient>
<linearGradient id="paint70_linear_475_1084" x1="465.008" y1="159.834" x2="648.17" y2="313.524" gradientUnits="userSpaceOnUse">
<stop stop-color="white"/>
<stop offset="1" stop-color="white" stop-opacity="0"/>
</linearGradient>
<linearGradient id="paint71_linear_475_1084" x1="478.284" y1="172.768" x2="647.353" y2="341.837" gradientUnits="userSpaceOnUse">
<stop stop-color="white"/>
<stop offset="1" stop-color="white" stop-opacity="0"/>
</linearGradient>
<linearGradient id="paint72_linear_475_1084" x1="490.36" y1="186.818" x2="644.051" y2="369.979" gradientUnits="userSpaceOnUse">
<stop stop-color="white"/>
<stop offset="1" stop-color="white" stop-opacity="0"/>
</linearGradient>
<linearGradient id="paint73_linear_475_1084" x1="501.148" y1="201.873" x2="638.29" y2="397.732" gradientUnits="userSpaceOnUse">
<stop stop-color="white"/>
<stop offset="1" stop-color="white" stop-opacity="0"/>
</linearGradient>
<linearGradient id="paint74_linear_475_1084" x1="510.564" y1="217.815" x2="630.114" y2="424.882" gradientUnits="userSpaceOnUse">
<stop stop-color="white"/>
<stop offset="1" stop-color="white" stop-opacity="0"/>
</linearGradient>
<linearGradient id="paint75_linear_475_1084" x1="518.54" y1="234.521" x2="619.588" y2="451.219" gradientUnits="userSpaceOnUse">
<stop stop-color="white"/>
<stop offset="1" stop-color="white" stop-opacity="0"/>
</linearGradient>
<linearGradient id="paint76_linear_475_1084" x1="525.018" y1="251.861" x2="606.795" y2="476.541" gradientUnits="userSpaceOnUse">
<stop stop-color="white"/>
<stop offset="1" stop-color="white" stop-opacity="0"/>
</linearGradient>
<linearGradient id="paint77_linear_475_1084" x1="529.949" y1="269.7" x2="591.833" y2="500.653" gradientUnits="userSpaceOnUse">
<stop stop-color="white"/>
<stop offset="1" stop-color="white" stop-opacity="0"/>
</linearGradient>
<linearGradient id="paint78_linear_475_1084" x1="533.3" y1="287.902" x2="574.819" y2="523.37" gradientUnits="userSpaceOnUse">
<stop stop-color="white"/>
<stop offset="1" stop-color="white" stop-opacity="0"/>
</linearGradient>
<linearGradient id="paint79_linear_475_1084" x1="535.045" y1="306.327" x2="555.884" y2="544.518" gradientUnits="userSpaceOnUse">
<stop stop-color="white"/>
<stop offset="1" stop-color="white" stop-opacity="0"/>
</linearGradient>
<linearGradient id="paint80_linear_475_1084" x1="535.176" y1="324.834" x2="535.176" y2="563.935" gradientUnits="userSpaceOnUse">
<stop stop-color="white"/>
<stop offset="1" stop-color="white" stop-opacity="0"/>
</linearGradient>
</defs>
</svg>
